<svg xmlns="http://www.w3.org/2000/svg" viewBox="0 0 512 512"><defs><style>.cls-5{fill:#998fc1}.cls-7{fill:#c2bae5}</style></defs><circle cx="256" cy="256" r="256" style="fill:#fcc8bc" id="BULINE"/><g id="Icons"><path d="M402.24 255.11a148.52 148.52 0 0 1-1.71 22.46 146.64 146.64 0 1 1-144.92-169.09 143.41 143.41 0 0 1 19.89 1.36 146.62 146.62 0 0 1 126.74 145.27z" style="fill:#32314b"/><path d="M402.24 255.11a148.52 148.52 0 0 1-1.71 22.46 146.76 146.76 0 0 1-125-167.73 146.62 146.62 0 0 1 126.71 145.27z" style="fill:#3e436d"/><path d="M255.61 34.54C133.8 34.54 35 133.3 35 255.11s98.8 220.57 220.61 220.57 220.57-98.75 220.57-220.57S377.43 34.54 255.61 34.54zm75.2 34.88a56.4 56.4 0 1 1-56.4 56.39 56.39 56.39 0 0 1 56.4-56.39zM290.7 240.7a14.41 14.41 0 1 1-14.41 14.41 14.42 14.42 0 0 1 14.41-14.41zm-16.91-3.13a14.42 14.42 0 1 1 14.41-14.42 14.43 14.43 0 0 1-14.41 14.42zm0 35.09a14.41 14.41 0 1 1-14.42 14.41 14.41 14.41 0 0 1 14.42-14.41zm-52.64-3.14a14.41 14.41 0 1 1 14.41-14.41 14.41 14.41 0 0 1-14.41 14.41zm16.92 3.14a14.41 14.41 0 1 1-14.41 14.41 14.41 14.41 0 0 1 14.41-14.41zm0-35.09a14.42 14.42 0 1 1 14.41-14.42 14.42 14.42 0 0 1-14.41 14.42zM185.43 69.42A56.4 56.4 0 1 1 129 125.81a56.4 56.4 0 0 1 56.43-56.39zM58.86 255.11a56.4 56.4 0 1 1 56.39 56.4 56.39 56.39 0 0 1-56.39-56.4zM185.43 440a56.4 56.4 0 1 1 56.4-56.39 56.39 56.39 0 0 1-56.4 56.39zm145.38 0a56.4 56.4 0 1 1 56.39-56.39A56.4 56.4 0 0 1 330.81 440zm66.42-128.45a56.4 56.4 0 1 1 56.4-56.4 56.41 56.41 0 0 1-56.4 56.36z" style="fill:#a99bd4"/><path class="cls-5" d="M129.22 388.22a219.52 219.52 0 0 1-38.83-82.48 56.42 56.42 0 0 1 0-101.26 219.69 219.69 0 0 1 38.77-82.39 56.4 56.4 0 0 1 56.27-52.67h.6a219.32 219.32 0 0 1 94.33-33.5 219.69 219.69 0 0 0-24.75-1.38C133.8 34.54 35 133.3 35 255.11s98.8 220.57 220.61 220.57a219.69 219.69 0 0 0 24.75-1.38 219.22 219.22 0 0 1-95.63-34.3 56.42 56.42 0 0 1-55.51-51.78z"/><path class="cls-5" d="M255.61 198.72A56.4 56.4 0 1 0 312 255.11a56.39 56.39 0 0 0-56.39-56.39zm-48.87 56.39a14.41 14.41 0 1 1 14.41 14.41 14.41 14.41 0 0 1-14.41-14.41zm31.33 46.37a14.41 14.41 0 1 1 14.41-14.41 14.41 14.41 0 0 1-14.41 14.41zm0-63.91a14.42 14.42 0 1 1 14.41-14.42 14.42 14.42 0 0 1-14.41 14.42zm35.72-28.83a14.42 14.42 0 1 1-14.42 14.41 14.42 14.42 0 0 1 14.42-14.41zm0 92.74a14.41 14.41 0 1 1 14.41-14.41 14.42 14.42 0 0 1-14.41 14.41zm16.91-32a14.41 14.41 0 1 1 14.42-14.41 14.41 14.41 0 0 1-14.42 14.45z"/><circle cx="255.61" cy="255.11" r="13.79" style="fill:#d8d3f2"/><circle class="cls-7" cx="427.12" cy="161.94" r="12.48"/><circle class="cls-7" cx="411.84" cy="140.9" r="8.84"/></g></svg>